<svg xmlns="http://www.w3.org/2000/svg" width="18.227" height="18.049" viewBox="0 0 18.227 18.049"><defs><style>.a{fill:#4762f1;}</style></defs><path class="a" d="M18.076,4.7,15.925,2.653a.437.437,0,0,0-.325-.16H6.981a.457.457,0,0,0-.457.457v1.4l-3.038.521a.45.45,0,0,0-.365.519l.154.9c-.987.332-2,.675-2.98,1.026a.452.452,0,0,0-.27.574L1.972,13.3a.267.267,0,0,0,.5-.181L.557,7.79c.922-.33,1.877-.653,2.81-.967l.917,5.349,1.056,6.16a.452.452,0,0,0,.519.366l2.859-.491,2.234-.383-3.36,1.208-2.65.953L2.884,14.26a.267.267,0,1,0-.5.181l2.087,5.805a.451.451,0,0,0,.422.3.442.442,0,0,0,.152-.027l2.729-.981,6.2-2.228,1.184-.2H17.77a.458.458,0,0,0,.457-.458V5.006a.384.384,0,0,0-.15-.3Zm-.707.063H16c-.064,0-.214,0-.252-.036a.15.15,0,0,1-.019-.092l0-1.439Zm.323,11.8H7.058v-5.2a.267.267,0,1,0-.534,0v5.28a.458.458,0,0,0,.457.458h5.013l-3.366.577-2.776.476L4.811,12.081l-1.149-6.7,2.862-.491v5.234a.267.267,0,1,0,.534,0v-7.1h8.133l0,1.614a.636.636,0,0,0,.177.47.816.816,0,0,0,.593.191h1.727Z" transform="translate(0 -2.493)"/><path class="a" d="M234.43,111.716a.267.267,0,0,0,.267.267h7.634a.267.267,0,0,0,0-.534H234.7A.267.267,0,0,0,234.43,111.716Z" transform="translate(-226.085 -107.57)"/><path class="a" d="M242.331,164.731H234.7a.267.267,0,0,0,0,.534h7.634a.267.267,0,0,0,0-.534Z" transform="translate(-226.085 -158.956)"/><path class="a" d="M242.331,218.013H234.7a.267.267,0,0,0,0,.534h7.634a.267.267,0,0,0,0-.534Z" transform="translate(-226.085 -210.341)"/><path class="a" d="M242.331,271.3H234.7a.267.267,0,0,0,0,.534h7.634a.267.267,0,0,0,0-.534Z" transform="translate(-226.085 -261.726)"/><path class="a" d="M242.331,324.578H234.7a.267.267,0,0,0,0,.534h7.634a.267.267,0,0,0,0-.534Z" transform="translate(-226.085 -313.112)"/></svg>