<svg xmlns="http://www.w3.org/2000/svg" version="1.0" width="933.000000" height="1280.000000" preserveAspectRatio="xMidYMid meet" style=""><rect id="backgroundrect" width="100%" height="100%" x="0" y="0" fill="none" stroke="none"/>

<g class="currentLayer" style=""><title>Layer 1</title><g transform="translate(0,1280) scale(0.10000000149011612,-0.10000000149011612) " fill="#4762f1" stroke="#4762f1" id="svg_1" class="selected" fill-opacity="1" stroke-opacity="1">
<path d="M5216.461540222168,12678.153869628908 c-165,-255 -277,-661 -332,-1207 c-13,-122 -46,-557 -46,-599 c0,-6 -3,-6 -9,0 c-14,13 -33,586 -26,749 c17,361 76,655 196,974 c21,58 37,106 35,108 c-1,2 -19,-21 -39,-50 c-136,-206 -209,-485 -237,-912 c-5,-82 -10,-365 -10,-627 c0,-598 -7,-618 -52,-143 c-30,318 -33,941 -5,1153 c30,237 10,209 -37,-49 c-66,-368 -71,-747 -16,-1244 c30,-265 26,-306 -9,-125 c-63,317 -96,743 -89,1155 c4,251 3,280 -8,215 c-61,-381 -38,-933 65,-1545 c36,-208 40,-238 31,-228 c-12,13 -38,101 -74,253 c-71,298 -130,645 -160,943 c-8,76 -17,141 -21,145 c-8,8 1,-209 16,-368 c22,-244 81,-587 160,-925 c61,-267 52,-282 -35,-58 c-93,238 -164,508 -205,783 c-36,241 -41,259 -35,145 c10,-193 65,-511 138,-793 c13,-51 22,-101 19,-112 c-3,-10 4,-47 15,-82 c37,-113 53,-228 33,-228 c-4,0 -26,39 -48,88 c-85,184 -154,396 -203,623 c-33,158 -39,125 -9,-52 c33,-194 93,-423 180,-683 c85,-254 87,-264 53,-345 c-12,-29 -16,-32 -30,-20 c-48,40 -147,298 -174,452 c-10,63 -31,145 -45,183 c-15,38 -36,97 -48,132 c-12,34 -27,62 -34,62 c-7,0 -24,16 -39,35 c-15,20 -28,34 -30,33 c-1,-2 13,-47 32,-102 c55,-158 77,-281 77,-436 c1,-141 -8,-199 -50,-340 c-28,-95 -91,-240 -104,-240 c-5,0 -9,83 -9,184 c0,385 -55,661 -178,901 c-46,88 -155,245 -172,245 c-4,0 11,-44 35,-97 c85,-195 141,-403 166,-621 c12,-108 9,-515 -4,-528 c-13,-13 -17,2 -32,127 c-74,591 -315,1030 -743,1351 c-42,32 -78,55 -80,53 c-3,-2 35,-46 83,-97 c210,-223 372,-487 468,-765 c47,-133 87,-316 93,-422 c6,-100 -5,-94 -30,18 c-51,226 -168,494 -293,671 c-86,121 -300,337 -426,430 c-103,75 -304,200 -322,200 c-5,0 15,-22 45,-47 c100,-86 301,-287 367,-368 c94,-116 175,-244 243,-380 c70,-140 234,-545 224,-554 c-9,-9 -45,40 -151,204 c-152,237 -292,442 -357,524 c-250,318 -516,517 -860,645 c-108,41 -328,99 -353,94 c-9,-2 19,-18 63,-37 c362,-157 661,-346 854,-540 c149,-149 215,-246 404,-584 c121,-217 118,-217 -70,-2 c-489,558 -965,881 -1556,1054 c-126,36 -229,59 -218,48 c3,-3 52,-23 110,-46 c335,-130 692,-344 997,-595 c116,-96 622,-596 642,-634 c12,-23 12,-23 -11,-11 c-13,7 -79,56 -148,109 c-677,525 -1375,892 -1963,1034 c-176,42 -177,38 -2,-27 c591,-221 1073,-500 1680,-970 c138,-107 239,-197 230,-205 c-2,-2 -98,56 -212,131 c-751,486 -1351,779 -1871,913 c-192,49 -201,41 -22,-20 c524,-178 1012,-440 1662,-893 c309,-215 306,-222 -25,-57 c-408,205 -712,330 -1017,417 c-242,70 -515,127 -680,141 c-78,6 -85,9 225,-80 c419,-119 751,-249 1135,-441 c271,-135 374,-193 354,-200 c-6,-2 -64,19 -130,48 c-629,271 -1178,412 -1684,433 l-125,5 l75,-14 c41,-9 127,-24 190,-35 c414,-73 907,-233 1250,-405 c88,-44 149,-85 127,-85 c-2,0 -73,25 -157,55 c-335,122 -623,195 -945,241 c-109,15 -666,33 -654,20 c3,-3 73,-13 155,-21 c538,-56 954,-154 1267,-297 c37,-17 67,-35 67,-41 c0,-10 -3,-10 -175,23 c-343,65 -741,74 -1070,25 c-106,-16 -248,-45 -243,-50 c2,-2 68,6 148,17 c198,28 608,31 785,5 c186,-28 375,-71 375,-86 c0,-4 -71,-11 -157,-14 c-339,-13 -670,-103 -951,-260 c-92,-50 -252,-160 -252,-171 c0,-2 57,21 128,51 c226,98 636,222 792,239 c72,8 60,-4 -47,-50 c-222,-95 -487,-249 -593,-346 c-35,-32 -18,-23 80,41 c211,136 507,273 826,382 c244,83 290,70 94,-28 c-322,-161 -577,-347 -713,-520 c-36,-46 -18,-34 68,44 c95,86 292,229 432,313 c166,100 466,248 512,254 c34,5 35,4 16,-11 c-11,-9 -71,-47 -133,-85 c-220,-135 -420,-305 -533,-455 c-87,-114 -71,-109 57,16 c157,154 267,244 434,354 c123,82 345,205 368,205 c33,0 -1,-33 -116,-115 c-137,-97 -372,-320 -432,-410 c-28,-41 -16,-32 71,56 c57,58 129,126 159,151 c100,83 253,181 375,239 c143,67 193,85 207,71 c6,-6 -26,-33 -89,-75 c-115,-77 -212,-159 -284,-242 c-55,-63 -144,-193 -137,-201 c3,-2 38,35 79,83 c96,112 217,217 354,308 c137,91 221,133 236,118 c7,-7 -5,-21 -43,-48 c-118,-85 -223,-205 -281,-320 c-45,-92 -41,-102 14,-30 c106,139 241,258 392,347 c67,39 125,49 134,22 c2,-5 -26,-34 -62,-62 c-104,-84 -185,-209 -185,-287 c0,-39 12,-30 50,37 c45,78 147,181 245,247 c66,44 83,51 109,45 c47,-10 52,-20 24,-56 c-14,-18 -39,-61 -56,-95 c-18,-34 -35,-64 -40,-67 c-4,-2 -6,-24 -4,-47 l4,-42 l18,23 l18,23 l66,-39 c43,-25 69,-47 73,-62 c4,-17 9,-20 18,-12 c9,8 33,-5 91,-46 c237,-170 443,-395 573,-626 c59,-105 27,-82 -85,58 c-234,294 -457,464 -718,548 c-125,41 -120,30 21,-43 c73,-38 174,-98 225,-132 c139,-95 379,-339 332,-339 c-3,0 -31,20 -62,44 c-152,116 -343,221 -547,299 c-49,19 -139,55 -200,80 c-120,49 -188,68 -168,47 c6,-7 9,-18 7,-24 c-2,-6 25,-24 63,-40 c137,-59 300,-145 362,-192 c85,-64 218,-190 308,-293 c105,-120 99,-130 -29,-47 c-326,210 -785,380 -1123,416 c-160,17 -159,12 10,-44 c275,-92 451,-168 658,-285 c133,-76 195,-120 166,-121 c-8,0 -62,16 -119,35 c-141,48 -308,82 -465,95 c-71,6 -191,17 -265,25 c-74,9 -171,17 -215,20 l-80,5 l49,-14 c27,-8 52,-19 55,-24 c3,-5 35,-13 71,-17 c90,-10 395,-118 598,-210 c79,-36 101,-55 65,-55 c-60,1 -285,33 -378,54 c-130,30 -248,50 -404,71 c-205,27 -203,20 9,-29 c206,-48 265,-66 254,-76 c-5,-5 -54,-16 -109,-25 c-55,-10 -156,-33 -225,-52 c-69,-20 -168,-42 -220,-51 c-71,-11 -89,-17 -72,-23 c12,-5 22,-13 22,-18 c0,-5 -30,-26 -67,-46 c-73,-40 -166,-105 -160,-111 c2,-2 46,14 98,36 c51,22 150,59 219,83 l125,42 l145,-2 c147,-2 270,-19 277,-39 c2,-6 -52,-24 -129,-43 c-72,-18 -173,-47 -222,-66 c-50,-18 -145,-49 -211,-70 c-137,-42 -269,-104 -358,-169 c-65,-46 -173,-153 -164,-163 c3,-2 26,9 51,26 c42,30 66,38 66,25 c0,-4 -46,-55 -102,-114 c-57,-59 -112,-122 -122,-141 l-20,-34 l42,33 c23,19 45,38 48,44 c3,5 52,46 108,91 c118,94 274,198 372,246 c38,19 76,38 84,43 c133,75 258,101 460,96 c76,-2 142,-7 147,-11 c13,-13 -24,-35 -81,-47 c-28,-6 -118,-15 -201,-20 c-178,-11 -249,-20 -238,-31 c4,-4 24,-9 43,-11 c19,-2 34,-7 33,-12 c-1,-6 -39,-26 -86,-46 c-329,-142 -561,-379 -636,-650 c-11,-40 -28,-81 -37,-91 c-10,-11 -13,-19 -8,-19 c4,0 17,11 29,24 c93,111 714,530 743,501 c8,-8 -162,-169 -200,-190 c-15,-8 -25,-21 -22,-28 c2,-7 -17,-42 -44,-78 c-70,-93 -115,-166 -172,-280 c-47,-93 -98,-210 -87,-199 c3,3 36,48 72,100 c134,189 279,348 426,466 c65,53 78,59 147,71 c43,7 165,16 272,19 c303,10 540,-17 847,-96 c227,-59 555,-182 536,-201 c-5,-5 -69,3 -143,16 c-597,111 -1194,111 -1609,0 c-85,-23 -246,-84 -239,-90 c2,-2 62,12 134,30 c277,70 451,90 784,89 c274,0 442,-14 685,-54 c149,-25 215,-40 215,-49 c0,-4 -156,-7 -347,-7 c-452,0 -692,-23 -941,-89 c-242,-64 -430,-184 -504,-322 c-51,-95 -46,-103 23,-37 c96,92 157,136 266,191 c242,124 510,172 893,159 c176,-5 327,-17 388,-31 c37,-9 16,-23 -46,-30 c-762,-85 -1220,-226 -1414,-432 c-46,-50 -94,-130 -84,-140 c3,-4 28,15 55,40 c190,178 521,294 986,347 c183,21 285,25 285,11 c0,-4 -48,-18 -107,-30 c-530,-109 -905,-268 -1083,-458 c-70,-75 -106,-142 -121,-232 c-17,-92 -4,-108 31,-42 c145,265 508,473 1079,616 c139,35 169,29 66,-13 c-44,-18 -129,-54 -190,-80 c-433,-184 -729,-416 -845,-663 c-29,-63 -74,-218 -66,-227 c3,-2 17,20 32,50 c67,133 183,279 311,391 c160,141 460,320 706,422 c100,41 147,44 82,5 c-494,-299 -814,-618 -936,-934 c-42,-108 -71,-246 -67,-319 l3,-60 l34,84 c163,403 399,715 735,972 c108,82 250,170 254,158 c2,-6 -28,-46 -67,-88 c-310,-343 -464,-652 -536,-1073 c-9,-54 8,-25 50,85 c101,267 254,531 407,701 c83,92 146,150 155,141 c3,-4 -17,-58 -45,-121 c-92,-205 -130,-377 -139,-626 c-7,-180 5,-436 18,-380 c4,19 18,107 29,195 c30,223 80,458 134,635 c21,70 40,58 49,-30 c22,-217 89,-616 107,-634 c6,-6 7,5 5,25 c-11,78 -25,508 -25,747 l0,257 l30,53 c48,82 49,81 70,-118 c18,-165 91,-500 109,-500 c3,0 4,68 2,152 c-4,168 13,537 33,695 c10,84 16,107 36,128 c39,42 47,33 54,-62 c20,-264 49,-456 97,-648 c17,-65 33,-125 37,-131 c4,-7 7,143 8,334 c0,304 13,577 30,665 c4,19 17,33 44,47 c58,30 66,27 83,-37 c44,-159 116,-542 132,-708 c17,-168 32,-78 41,250 c6,212 -5,499 -21,555 c-8,26 11,42 57,47 l45,5 l27,-70 c57,-148 112,-348 194,-697 l9,-40 l8,70 c10,90 -1,389 -20,530 c-8,61 -18,134 -22,164 l-6,54 l52,-6 c29,-4 59,-11 66,-17 c22,-18 81,-284 110,-496 c9,-66 18,-120 20,-122 c13,-14 45,284 45,425 c0,61 4,115 10,118 c25,16 212,-116 325,-229 c130,-130 283,-337 413,-559 c89,-151 110,-199 110,-250 c0,-30 12,-74 31,-122 c17,-40 31,-87 31,-104 c0,-17 9,-54 21,-82 c14,-36 18,-64 14,-88 c-3,-22 0,-53 9,-78 c11,-33 14,-71 10,-162 c-5,-112 -3,-123 21,-182 c15,-35 27,-82 27,-104 c0,-22 9,-62 20,-90 c13,-34 18,-63 15,-90 c-3,-23 1,-65 10,-98 c13,-45 14,-65 6,-90 c-6,-18 -11,-70 -12,-116 c0,-68 5,-95 25,-144 c16,-38 24,-72 21,-91 c-2,-17 4,-52 14,-79 c12,-30 18,-70 18,-110 c-1,-34 2,-85 6,-113 c5,-35 3,-59 -5,-74 c-7,-13 -14,-59 -16,-102 c-2,-64 2,-91 22,-144 c13,-36 24,-83 23,-107 c-1,-23 6,-64 16,-90 c15,-42 16,-53 5,-88 c-10,-30 -11,-45 -2,-64 c17,-36 15,-101 -3,-129 c-9,-13 -15,-41 -14,-62 c1,-22 -2,-56 -6,-76 c-6,-29 -2,-50 16,-90 c14,-33 24,-75 25,-113 c1,-33 9,-80 18,-104 c16,-42 16,-48 1,-81 c-12,-28 -14,-42 -6,-64 c17,-43 13,-107 -6,-129 c-11,-11 -19,-38 -20,-66 c-1,-25 -5,-62 -8,-82 c-5,-26 0,-51 20,-98 c20,-48 25,-73 20,-101 c-4,-25 0,-56 14,-96 c18,-54 18,-61 4,-85 c-12,-20 -14,-37 -7,-75 c11,-65 6,-105 -16,-129 c-10,-11 -20,-40 -23,-65 c-3,-25 -9,-59 -12,-77 c-5,-23 0,-50 20,-99 c23,-57 26,-73 17,-102 c-9,-27 -7,-41 9,-75 c23,-52 24,-80 3,-113 c-14,-21 -15,-31 -5,-63 c18,-60 14,-92 -16,-123 c-18,-19 -27,-39 -27,-65 c-1,-21 -7,-56 -15,-79 c-12,-38 -11,-45 12,-95 c31,-66 32,-74 22,-122 c-5,-25 -3,-46 4,-60 c27,-52 30,-85 10,-111 c-35,-45 -24,-79 38,-114 c26,-14 75,-16 88,-3 c28,25 77,31 128,14 c59,-19 116,-9 179,33 c30,19 51,24 100,24 c109,1 192,56 223,149 c9,28 29,66 46,87 c16,20 29,43 29,50 c0,16 -25,41 -50,49 c-25,8 -25,18 1,71 c16,34 18,47 9,63 c-6,11 -8,38 -4,60 c6,35 3,41 -25,62 c-38,28 -39,51 -5,118 c24,45 25,54 14,81 c-7,17 -21,35 -31,41 c-32,17 -17,93 25,128 c9,8 16,27 16,43 c0,22 -7,33 -30,46 c-34,19 -37,35 -14,81 c13,26 14,38 5,58 c-6,14 -9,40 -5,58 c5,28 1,38 -25,66 c-36,37 -38,56 -11,109 c28,54 25,85 -10,122 c-16,17 -30,37 -30,43 c0,7 13,39 30,70 c16,31 30,62 30,67 c0,6 -16,25 -35,43 l-35,32 l16,38 c12,31 14,47 6,75 c-6,19 -8,47 -5,62 c4,20 -1,33 -20,50 c-34,32 -40,60 -22,103 c22,55 19,99 -10,133 c-30,36 -31,65 -5,115 c11,20 20,48 20,61 c0,23 -5,31 -45,65 c-11,8 -14,19 -8,30 c4,9 7,54 5,101 c-2,75 -5,87 -29,112 c-23,24 -25,32 -19,75 c19,124 19,118 -8,150 c-30,35 -33,68 -11,120 c23,55 19,85 -15,115 c-27,24 -29,29 -19,57 c6,18 8,46 5,64 c-4,18 -8,49 -10,70 c-2,22 -14,49 -27,63 c-24,26 -27,53 -14,137 c7,41 4,52 -19,85 c-30,43 -33,77 -11,129 c20,48 19,56 -12,94 c-23,27 -28,43 -29,93 c-3,106 -11,147 -34,171 c-22,24 -25,42 -19,147 c2,38 -3,55 -26,88 c-28,40 -28,41 -15,98 c17,70 14,90 -13,120 c-17,18 -22,37 -23,80 c-2,83 -20,162 -44,187 c-17,18 -20,33 -18,101 c2,72 0,83 -27,122 c-28,43 -28,44 -16,107 c13,65 7,94 -25,120 c-7,6 -15,50 -18,105 c-6,88 -4,106 28,232 c129,504 387,840 804,1048 c356,177 773,234 1096,150 c100,-26 182,-58 201,-76 c12,-12 15,-40 14,-127 c0,-62 -4,-139 -8,-172 c-5,-33 -7,-62 -5,-64 c7,-8 59,117 84,204 c16,55 32,91 41,93 c15,3 140,-76 199,-126 l34,-29 l-1,-109 c-1,-60 -5,-136 -8,-169 l-6,-60 l18,30 c9,17 31,70 48,119 c17,49 36,91 41,93 c6,2 45,-32 87,-77 c59,-61 77,-86 77,-107 c-1,-29 -22,-156 -35,-207 c-12,-45 9,-25 56,54 c23,39 47,70 54,70 c16,0 54,-60 135,-214 c71,-136 72,-150 24,-271 c-15,-36 -24,-68 -22,-71 c3,-2 25,23 49,56 c24,33 48,59 54,57 c5,-2 50,-81 99,-175 c49,-95 91,-170 93,-168 c4,3 -80,281 -116,381 c-12,32 -21,68 -21,80 c1,38 47,160 61,160 c20,0 99,-102 231,-300 c126,-190 143,-195 59,-20 c-55,116 -137,251 -221,365 c-56,75 -60,84 -60,135 c0,41 4,55 14,55 c20,0 133,-132 279,-325 c66,-88 122,-162 124,-164 c2,-2 5,-2 7,0 c7,7 -57,148 -101,225 c-65,110 -152,226 -246,329 c-80,86 -88,99 -98,150 c-6,32 -8,59 -5,63 c11,10 50,-15 127,-82 c90,-77 191,-191 301,-338 c45,-60 82,-108 84,-108 c16,0 -81,184 -149,285 c-71,104 -242,280 -340,349 c-71,51 -119,118 -98,139 c14,14 225,-111 385,-229 c70,-52 130,-93 133,-90 c3,2 -35,46 -84,97 c-188,196 -432,353 -679,439 c-63,22 -101,41 -120,62 l-29,31 l47,-6 c128,-17 458,-154 633,-263 c102,-64 105,-66 105,-62 c0,9 -144,121 -231,180 c-227,152 -437,230 -712,263 c-40,5 -51,12 -72,43 c-41,59 -37,62 78,62 c237,0 485,-52 782,-164 c79,-29 68,-17 -40,47 c-154,91 -373,171 -555,204 c-125,22 -353,22 -478,0 c-50,-10 -94,-17 -97,-17 c-11,0 -36,63 -28,71 c18,18 173,49 300,61 c151,14 367,2 587,-32 c71,-11 131,-18 133,-16 c7,7 -177,64 -287,90 c-186,43 -251,51 -425,51 c-186,0 -274,-14 -422,-64 c-70,-24 -90,-27 -130,-20 c-156,29 -301,-85 -368,-289 c-18,-56 -72,-129 -86,-115 c-4,4 -12,43 -18,86 l-11,78 l39,77 c80,158 235,339 391,458 l65,49 l185,0 c102,-1 228,-7 280,-14 c355,-48 709,-183 1020,-391 c82,-55 88,-57 50,-15 c-139,150 -399,323 -624,416 c-80,33 -118,59 -87,59 c25,0 239,-44 366,-76 c110,-28 434,-129 514,-161 c8,-3 -37,46 -100,108 c-123,123 -199,174 -356,237 c-234,94 -600,136 -835,97 c-102,-17 -158,-15 -158,5 c0,24 159,71 320,95 c97,14 130,15 210,5 c225,-27 487,-90 685,-163 c66,-25 129,-48 140,-52 c48,-16 -90,63 -195,113 c-113,54 -131,75 -45,53 c24,-6 50,-11 57,-11 c25,1 -78,50 -167,79 c-156,51 -265,61 -670,64 c-201,1 -365,5 -365,8 c0,9 122,63 225,99 c84,30 99,32 235,34 c80,0 199,-2 265,-7 c139,-8 136,1 -10,32 c-133,29 -130,27 -114,48 c13,15 11,16 -11,9 c-14,-4 -124,-11 -245,-16 c-121,-5 -253,-14 -294,-20 c-81,-11 -107,-3 -68,22 c13,9 87,48 166,88 c79,39 141,73 138,76 c-11,11 -436,-169 -542,-231 c-22,-12 -86,-39 -143,-60 c-57,-20 -136,-52 -175,-71 c-39,-18 -73,-31 -76,-29 c-8,9 41,54 141,131 c171,131 412,275 515,308 c28,10 62,27 76,39 c13,12 33,27 43,34 c32,20 -50,-5 -176,-54 c-63,-24 -176,-65 -250,-89 c-158,-53 -326,-131 -461,-214 c-54,-33 -103,-60 -109,-60 c-36,0 188,215 360,345 c122,92 278,195 296,195 c8,0 14,4 14,9 c0,5 24,23 53,40 c61,36 51,40 -28,10 l-55,-21 l-80,76 c-96,89 -195,153 -307,197 c-46,18 -83,35 -83,39 c0,28 112,7 289,-55 c151,-53 278,-118 440,-227 c24,-16 45,-27 47,-25 c8,7 -94,94 -166,142 c-98,65 -219,123 -345,166 c-141,48 -149,64 -28,56 c117,-8 332,-64 475,-122 c99,-41 262,-124 337,-173 c14,-10 22,-12 18,-5 c-4,7 -49,40 -100,74 c-109,73 -311,173 -457,225 c-115,41 -129,49 -114,64 c19,19 308,-58 519,-137 c173,-66 340,-148 520,-257 c55,-33 -44,52 -120,103 c-176,119 -370,203 -672,291 c-74,21 -95,40 -45,40 c48,0 373,-69 522,-111 c214,-61 385,-126 558,-213 c96,-48 84,-31 -23,34 c-201,121 -426,202 -753,270 c-73,16 -136,31 -139,34 c-16,16 18,21 125,19 c297,-4 727,-75 986,-163 c49,-16 91,-28 93,-26 c6,5 -126,59 -222,90 c-104,33 -259,69 -414,95 c-69,12 -127,23 -129,26 c-17,16 39,20 291,20 c278,-1 418,-11 590,-41 c48,-9 90,-14 93,-11 c8,8 -163,67 -285,98 c-305,78 -689,80 -987,4 c-54,-14 -105,-25 -112,-25 c-32,0 16,34 130,91 c285,143 573,228 922,273 c66,9 121,18 124,20 c9,9 -186,-6 -323,-25 c-311,-44 -673,-157 -956,-299 c-44,-23 -84,-39 -87,-36 c-17,17 175,166 348,271 c192,117 487,254 793,370 c70,26 125,50 123,52 c-2,3 -60,-9 -129,-26 c-450,-109 -872,-312 -1326,-638 c-41,-29 -77,-50 -80,-47 c-9,10 158,163 287,264 c278,216 638,428 986,581 c54,24 94,45 89,46 c-5,2 -77,-20 -159,-48 c-459,-159 -894,-404 -1334,-754 c-64,-50 -128,-100 -144,-110 c-29,-19 -29,-19 -18,0 c12,24 171,178 307,299 c291,258 640,507 1017,726 c70,41 126,75 124,77 c-2,2 -68,-24 -147,-57 c-460,-196 -896,-492 -1357,-919 c-68,-64 -135,-124 -148,-134 c-78,-60 45,104 308,411 c402,469 828,855 1182,1072 c47,29 86,54 86,56 c0,9 -80,-30 -175,-83 c-209,-118 -437,-284 -690,-502 c-149,-128 -550,-532 -721,-726 c-194,-221 -233,-263 -234,-248 c0,31 280,414 474,648 c292,351 637,674 956,897 c172,119 161,111 118,94 c-21,-8 -86,-43 -145,-77 c-514,-294 -985,-738 -1470,-1384 c-194,-259 -199,-250 -36,60 c306,580 587,942 970,1245 c71,55 142,112 158,126 l30,24 l-45,-21 c-201,-96 -456,-283 -655,-483 c-290,-291 -455,-546 -699,-1080 c-20,-44 -39,-76 -42,-73 c-13,13 91,462 136,592 c111,317 351,620 737,932 c39,32 70,59 68,62 c-6,6 -192,-96 -270,-149 c-200,-135 -373,-308 -480,-480 c-15,-25 -34,-49 -41,-53 c-8,-4 -14,-16 -14,-25 c0,-9 -10,-33 -22,-52 c-23,-36 -45,-84 -105,-232 c-20,-50 -41,-88 -49,-88 c-8,0 -37,14 -65,32 c-47,29 -51,33 -46,63 c3,17 23,76 44,131 l39,99 l44,-2 l44,-2 l-32,19 c-37,23 -37,21 -16,63 c30,58 31,59 87,29 c29,-15 56,-29 62,-31 c5,-2 -12,21 -38,51 c-26,30 -47,60 -47,65 c0,6 33,63 74,127 c41,64 72,116 68,116 c-4,0 -50,-46 -103,-102 l-97,-102 l-28,19 c-75,49 -148,84 -197,95 c-78,18 -182,9 -239,-20 c-27,-13 -51,-21 -54,-17 c-11,11 66,118 130,182 c98,97 248,163 376,166 c38,1 41,2 20,9 c-42,13 -142,11 -203,-5 c-120,-31 -238,-111 -337,-229 c-34,-42 -67,-76 -72,-76 c-12,0 0,43 39,134 c67,158 173,313 303,447 c100,103 110,103 110,0 c0,-123 21,-161 88,-161 c44,0 46,23 6,97 c-41,77 -39,43 -34,568 c1,176 0,318 -3,315 c-6,-6 -36,-326 -43,-455 c-2,-49 -7,-118 -10,-152 l-6,-62 l-82,-55 c-154,-103 -293,-280 -417,-533 c-33,-68 -64,-123 -69,-123 c-25,0 56,222 155,425 c98,202 208,367 328,492 c23,24 38,45 35,48 c-9,10 -133,-92 -202,-166 c-131,-142 -274,-389 -391,-679 c-79,-194 -86,-162 -16,64 c110,349 265,699 406,917 c70,109 70,118 -2,44 c-172,-177 -334,-498 -493,-977 c-45,-138 -70,-194 -70,-158 c0,23 64,335 106,519 c118,511 230,850 370,1123 c57,110 53,117 -11,19 c-173,-269 -337,-745 -515,-1501 c-34,-145 -57,-195 -45,-100 c14,117 57,371 96,564 c96,480 223,895 356,1161 c52,102 34,97 -32,-9 c-184,-296 -340,-800 -474,-1530 c-22,-120 -42,-221 -46,-224 c-18,-19 13,408 56,742 c52,415 124,721 234,996 c30,74 53,135 52,136 c-1,2 -19,-23 -39,-54 zm587,-2012 c3,-5 -7,-29 -24,-53 l-30,-44 l-138,-6 c-107,-4 -165,-12 -258,-36 c-135,-35 -135,-35 -135,-21 c0,34 189,130 304,155 c72,16 272,19 281,5 zm163,-26 c34,-9 52,-20 52,-30 c0,-24 -50,-84 -71,-84 c-21,0 -130,27 -137,35 c-6,6 12,48 35,83 c16,26 17,26 121,-4 zm-273,-143 c3,-6 -14,-48 -37,-95 c-48,-97 -33,-91 -184,-72 c-60,7 -132,9 -180,5 c-43,-4 -97,-8 -118,-10 c-156,-14 170,128 379,165 c98,17 132,19 140,7 zm230,-12 c6,-7 3,-21 -9,-42 c-10,-18 -37,-67 -59,-110 c-37,-73 -42,-78 -66,-74 c-55,11 -81,26 -81,47 c0,27 60,183 74,193 c14,10 128,-2 141,-14 zm-607,-240 c2,-9 -3,-23 -11,-31 c-15,-14 -62,-12 -196,8 c-79,12 40,44 154,40 c37,-1 51,-5 53,-17 zm248,4 c17,-6 15,-32 -5,-85 c-13,-34 -23,-34 -126,0 c-66,22 -81,31 -83,50 c-7,46 14,55 110,48 c49,-4 95,-9 104,-13 zm200,-43 c14,-6 24,-16 21,-23 c-2,-6 -12,-37 -22,-67 c-10,-30 -23,-58 -28,-62 c-6,-3 -26,1 -45,10 c-33,16 -34,18 -29,62 c3,25 10,58 16,74 c12,30 22,30 87,6 zm242,-85 c28,-13 52,-29 52,-35 c0,-28 -56,-193 -67,-197 c-13,-5 -89,44 -97,63 c-4,11 17,136 29,175 c8,25 19,24 83,-6 zm-763,6 c26,-6 30,-11 28,-35 c-1,-16 -6,-33 -10,-37 c-4,-4 -60,6 -123,22 c-63,16 -123,29 -132,29 c-18,0 -23,11 -11,23 c8,9 208,7 248,-2 zm234,-46 l53,-16 l-6,-41 c-4,-22 -11,-49 -17,-59 c-9,-18 -12,-17 -67,7 c-31,14 -67,30 -79,35 c-18,7 -23,16 -23,47 c0,21 3,42 8,46 c9,9 59,2 131,-19 zm235,-86 c11,-10 -8,-127 -23,-142 c-7,-7 -19,-4 -37,8 c-25,16 -26,21 -21,75 c3,32 8,64 12,70 c8,12 53,5 69,-11 zm-471,-26 c9,-6 9,-100 -1,-107 c-4,-2 -50,8 -102,23 c-77,22 -96,31 -98,47 c-4,25 14,41 53,47 c31,5 135,-2 148,-10 zm-243,-28 c0,-21 -28,-31 -43,-16 c-9,9 -8,14 3,21 c22,14 40,12 40,-5 zm426,-11 c74,-25 76,-29 68,-117 c-5,-55 -11,-77 -20,-77 c-26,0 -116,63 -125,87 c-5,13 -9,47 -9,74 c0,57 6,59 86,33 zm515,-44 c22,-12 42,-26 45,-33 c2,-7 -7,-50 -21,-97 c-15,-47 -31,-103 -36,-125 c-6,-22 -21,-76 -35,-120 c-49,-161 -59,-144 -40,71 c9,93 18,200 22,239 c5,67 10,85 20,85 c3,0 23,-9 45,-20 zm-268,-68 c14,-15 15,-33 9,-117 c-6,-91 -9,-100 -27,-100 c-24,0 -32,31 -34,132 c-2,102 14,127 52,85 zm-693,-6 c0,-18 -15,-23 -52,-18 c-45,7 -35,32 12,32 c28,0 40,-4 40,-14 zm215,-14 l50,-17 l3,-52 c2,-29 -1,-53 -5,-53 c-18,0 -195,94 -200,107 c-3,7 -2,20 1,29 c5,13 15,15 54,9 c26,-4 70,-14 97,-23 zm-855,-164 l52,-153 l-31,-60 c-44,-87 -148,-245 -161,-245 c-15,0 -13,17 19,210 c17,96 33,216 36,265 c7,106 12,135 24,135 c5,0 32,-69 61,-152 zm1093,71 c23,-12 45,-27 49,-33 c4,-6 8,-50 8,-98 c0,-101 -5,-105 -64,-53 c-32,28 -41,45 -52,97 c-25,117 -18,126 59,87 zm-461,-42 c4,-7 8,-24 8,-39 c0,-31 -18,-36 -64,-18 c-20,7 -26,17 -26,39 c0,16 6,32 13,35 c17,7 60,-3 69,-17 zm204,-38 c83,-35 86,-39 104,-139 c6,-36 13,-73 16,-82 c9,-30 -16,-20 -75,30 c-31,27 -75,61 -98,77 c-43,27 -63,67 -63,123 c0,31 25,29 116,-9 zm491,-61 c11,-13 27,-248 18,-248 c-16,0 -62,230 -50,250 c8,14 21,12 32,-2 zm-680,-85 c22,-20 58,-142 46,-154 c-8,-7 -117,68 -139,96 c-6,8 -9,28 -6,45 c4,27 8,30 42,30 c22,0 46,-7 57,-17 zm482,-20 c25,-24 31,-41 45,-130 c18,-118 20,-153 6,-153 c-5,0 -16,12 -24,28 c-17,34 -86,247 -86,267 c0,23 27,18 59,-12 zm-238,-90 l84,-58 l37,-110 c73,-220 33,-228 -107,-20 c-59,89 -127,223 -119,237 c9,14 17,10 105,-49 zm1686,-28 c55,-19 134,-50 175,-71 c99,-49 238,-142 238,-159 c0,-7 -17,-19 -37,-25 c-48,-15 -201,-96 -318,-169 c-151,-93 -322,-228 -467,-369 c-98,-95 -138,-129 -138,-115 c0,49 156,326 242,430 c66,79 302,273 333,273 c8,0 36,-19 62,-42 c40,-38 45,-40 38,-18 c-28,90 -103,159 -252,230 c-46,22 -83,44 -83,48 c0,16 45,31 75,26 c17,-3 76,-21 132,-39 zm-3936,-5 c26,-14 24,-22 -15,-77 c-18,-27 -43,-67 -55,-90 c-13,-27 -28,-43 -39,-42 c-33,1 -116,34 -120,47 c-2,8 32,49 75,93 c82,82 108,93 154,69 zm3746,-70 c88,-34 163,-77 163,-93 c0,-17 -160,-121 -169,-111 c-25,30 -61,84 -61,91 c0,4 -27,30 -60,56 c-33,27 -60,55 -60,61 c0,20 42,36 80,30 c19,-3 67,-18 107,-34 zm-1718,-18 l74,-38 l54,-119 c29,-65 53,-120 53,-122 c0,-15 -34,9 -103,72 c-45,42 -114,97 -152,124 c-73,49 -92,84 -64,117 c17,20 46,13 138,-34 zm-1752,-44 c61,-34 167,-100 235,-147 l123,-87 l49,-94 c59,-114 120,-280 108,-292 c-5,-5 -33,21 -67,62 c-64,78 -222,230 -239,230 c-5,0 8,-19 30,-42 c105,-110 238,-297 308,-433 c39,-77 60,-161 43,-172 c-6,-4 -13,-1 -15,5 c-10,32 -253,387 -311,456 c-123,147 -282,267 -473,359 c-67,33 -108,58 -108,67 c0,33 143,150 184,150 c12,0 71,-28 133,-62 zm3257,-26 c27,-15 51,-32 53,-38 c5,-16 -84,-67 -100,-58 c-30,18 -77,60 -77,68 c0,16 43,56 59,56 c9,0 38,-13 65,-28 zm-2030,-24 c3,-13 12,-53 20,-91 c9,-42 10,-69 4,-73 c-11,-7 -9,-10 -42,47 c-28,49 -32,73 -16,113 c12,32 28,33 34,4 zm89,-53 c31,-53 33,-61 12,-69 c-12,-4 -21,7 -35,40 c-36,83 -21,101 23,29 zm977,19 c0,-8 -4,-12 -10,-9 c-5,3 -10,13 -10,21 c0,8 5,12 10,9 c6,-3 10,-13 10,-21 zm1114,-38 c26,-22 37,-39 33,-49 c-8,-21 -106,-87 -121,-81 c-13,6 -66,80 -66,93 c0,16 74,71 95,71 c11,-1 38,-16 59,-34 zm-290,-21 c20,-8 36,-21 36,-29 c0,-7 -22,-32 -49,-54 c-119,-101 -239,-285 -327,-505 c-47,-118 -74,-164 -74,-125 c0,35 44,191 81,284 c61,157 244,444 283,444 c7,0 30,-7 50,-15 zm-1928,-40 c21,-51 18,-64 -21,-82 c-53,-25 -61,-8 -31,61 c14,31 28,56 31,56 c3,0 13,-16 21,-35 zm625,-22 c27,-14 49,-30 49,-35 c0,-4 6,-8 13,-8 c22,0 107,-81 128,-122 c21,-41 20,-68 -3,-68 c-19,0 -148,119 -148,136 c0,8 -5,14 -12,14 c-16,0 -98,81 -98,97 c0,19 17,16 71,-14 zm-192,-58 c23,-41 66,-111 96,-155 l55,-81 l0,-92 c0,-102 -9,-129 -34,-108 c-9,8 -16,28 -17,45 c0,17 -4,40 -9,51 c-7,16 -9,14 -9,-15 c-2,-44 -13,-62 -34,-54 c-22,8 -27,28 -41,158 l-12,111 l-12,-66 c-7,-36 -12,-80 -12,-97 c0,-36 -19,-43 -41,-15 c-11,13 -13,54 -11,192 c5,230 15,246 81,126 zm1636,34 c19,-17 35,-36 35,-43 c0,-6 -31,-35 -69,-64 c-75,-57 -251,-235 -291,-295 c-27,-40 -50,-55 -50,-33 c0,28 93,198 151,276 c68,92 159,190 177,190 c6,0 27,-14 47,-31 zm-1785,-194 c0,-37 -10,-44 -30,-20 c-14,17 -4,55 16,55 c9,0 14,-11 14,-35 zm-30,-210 c35,-63 40,-80 35,-112 c-15,-89 -24,-93 -59,-25 c-32,61 -32,36 -1,-72 l25,-87 l-21,-82 c-26,-105 -39,-120 -66,-75 c-18,31 -20,51 -19,284 c1,202 4,255 16,269 c13,16 15,16 32,-5 c10,-12 36,-55 58,-95 zm-680,10 c34,-38 68,-79 75,-90 c18,-26 30,-150 17,-159 c-6,-3 -32,38 -60,97 c-27,57 -65,129 -85,160 c-67,104 -42,100 53,-8 zm1148,-57 c36,-46 38,-56 18,-64 c-25,-10 -55,15 -65,53 c-18,65 1,70 47,11 zm-642,10 c7,-22 -3,-228 -12,-261 c-4,-13 -9,-15 -19,-7 c-17,14 -33,80 -40,168 c-5,68 -4,74 19,97 c31,31 43,31 52,3 zm1294,-10 c0,-7 -15,-67 -34,-133 c-19,-66 -37,-132 -40,-147 c-9,-40 -23,-34 -36,13 c-16,60 -3,119 46,204 c41,70 64,92 64,63 zm1619,-22 c-11,-10 -270,-136 -280,-136 c-21,0 22,39 75,70 c73,41 235,94 205,66 zm-2575,-156 c52,-55 54,-68 28,-155 c-21,-69 -39,-79 -66,-34 c-21,35 -37,239 -19,239 c6,0 31,-22 57,-50 zm-585,-194 c14,-74 14,-123 2,-110 c-9,8 -31,144 -31,182 c1,32 18,-10 29,-72 zm4081,24 c136,-28 285,-81 420,-151 c194,-101 220,-142 43,-66 c-202,86 -386,152 -549,197 c-43,12 -83,26 -88,31 c-17,16 71,10 174,-11 zm-3275,-30 c4,-6 4,-18 1,-27 c-5,-12 -9,-13 -21,-3 c-8,7 -15,19 -15,26 c0,16 26,19 35,4 zm-294,-72 c13,-69 11,-134 -6,-148 c-12,-10 -15,-8 -19,12 c-28,123 -34,153 -30,165 c15,49 14,48 31,31 c8,-9 19,-36 24,-60 zm212,-3 c42,-85 44,-104 19,-135 l-18,-23 l-36,44 c-54,68 -57,77 -40,137 c8,28 20,52 26,52 c6,0 28,-34 49,-75 zm-386,-89 c-7,-51 -24,-67 -43,-42 c-17,23 -18,64 -3,103 l11,28 l20,-25 c15,-19 19,-34 15,-64 zm-2253,43 c39,-13 72,-30 74,-38 c4,-11 -2,-12 -24,-6 c-16,4 -89,20 -162,35 c-73,15 -136,31 -140,35 c-17,18 186,-4 252,-26 zm2824,-52 c33,-66 39,-87 22,-87 c-17,0 -70,92 -70,122 c0,43 12,34 48,-35 zm1962,-9 c0,-7 -28,-35 -61,-63 c-64,-53 -138,-133 -208,-227 c-24,-32 -47,-58 -51,-58 c-4,0 -24,20 -45,45 c-27,33 -59,56 -122,86 c-69,34 -82,44 -71,54 c22,22 254,105 392,140 c145,38 166,41 166,23 zm-2690,-22 c0,-14 -21,-58 -26,-54 c-8,8 7,58 17,58 c5,0 9,-2 9,-4 zm464,-47 c10,-17 16,-40 12,-52 c-3,-11 0,-27 5,-33 c14,-17 2,-54 -18,-54 c-34,0 -73,59 -40,61 c6,0 2,5 -10,11 c-27,13 -28,18 -9,63 c18,43 36,44 60,4 zm201,-38 c45,-70 53,-95 35,-106 c-11,-7 -106,89 -115,117 c-7,19 11,58 26,58 c5,0 30,-31 54,-69 zm-417,27 c20,-20 15,-66 -9,-73 c-32,-11 -43,7 -29,49 c12,39 19,43 38,24 zm566,-64 c9,-24 7,-28 -9,-14 c-17,14 -20,30 -6,30 c5,0 12,-7 15,-16 zm-210,-100 c50,-61 54,-75 31,-94 c-21,-18 -43,3 -72,68 c-43,98 -27,108 41,26 zm-374,32 c0,-8 -4,-17 -9,-21 c-12,-7 -24,12 -16,25 c9,15 25,12 25,-4 zm145,-53 c3,-21 8,-46 9,-55 c2,-9 -2,-25 -9,-35 c-11,-14 -18,-16 -31,-7 c-34,20 -38,38 -19,87 c21,57 42,61 50,10 zm1475,-133 c37,-124 110,-496 110,-560 c0,-23 -9,-30 -77,-60 c-421,-182 -719,-502 -868,-930 c-20,-58 -40,-109 -44,-113 c-4,-4 -20,10 -36,33 c-26,38 -27,44 -21,111 c5,61 3,76 -13,103 c-19,29 -19,40 -10,131 c43,444 175,743 443,1010 c120,118 229,205 243,191 c4,-3 -4,-28 -16,-54 c-27,-54 -63,-154 -58,-159 c2,-2 19,24 36,57 c70,130 228,310 273,310 c13,0 23,-18 38,-70 zm-1326,11 c55,-56 55,-75 1,-85 c-30,-6 -42,-3 -60,14 c-25,24 -35,67 -23,99 c11,32 29,26 82,-28 zm222,-17 c9,-13 14,-27 11,-30 c-9,-9 -77,36 -77,50 c0,34 38,23 66,-20 zm-2174,-50 c160,-109 508,-386 508,-405 c0,-15 -10,-11 -89,35 c-255,146 -490,262 -717,351 c-65,26 -121,49 -124,52 c-16,15 45,23 182,23 l157,0 l83,-56 zm1756,39 c-5,-25 -28,-28 -28,-4 c0,12 6,21 16,21 c9,0 14,-7 12,-17 zm1820,-90 c49,-181 63,-356 33,-386 c-11,-11 -17,20 -26,143 c-4,47 -15,132 -26,190 c-10,58 -19,113 -19,123 c0,39 19,4 38,-70 zm861,48 c6,-10 7,-22 3,-26 c-14,-14 -215,-105 -221,-100 c-12,12 19,42 94,93 c85,56 109,62 124,33 zm-4962,-25 c258,-75 555,-204 790,-344 c176,-104 214,-142 103,-100 c-328,123 -615,204 -876,250 c-113,20 -163,23 -412,23 c-155,0 -282,3 -282,7 c0,10 132,76 225,113 c98,40 253,84 297,84 c20,1 90,-15 155,-33 zm-957,19 c0,-3 -53,-44 -117,-91 c-146,-108 -259,-204 -397,-335 c-59,-56 -109,-99 -113,-95 c-24,24 237,304 367,393 c122,83 260,151 260,128 zm1840,-11 c66,-15 73,-19 136,-87 c72,-77 274,-341 274,-357 c0,-22 -20,-5 -130,106 c-63,64 -169,163 -235,222 c-106,93 -141,132 -120,132 c3,0 37,-7 75,-16 zm1475,-9 c0,-20 -30,-43 -41,-32 c-11,11 15,59 29,54 c6,-2 12,-12 12,-22 zm2904,-94 c13,-24 5,-31 -36,-31 c-25,0 -33,4 -33,18 c0,10 3,22 7,25 c13,14 53,6 62,-12 zm-2615,-102 c84,-58 116,-87 116,-101 c0,-19 -5,-20 -53,-15 c-97,10 -240,68 -254,103 c-6,17 44,94 62,94 c7,0 65,-36 129,-81 zm-1258,46 c24,-15 133,-249 142,-304 c5,-33 4,-35 -12,-22 c-10,8 -33,44 -51,80 c-18,36 -60,109 -93,161 c-33,52 -58,99 -55,103 c6,9 39,0 69,-18 zm984,5 c0,-5 -7,-10 -16,-10 c-8,0 -12,5 -9,10 c3,6 10,10 16,10 c5,0 9,-4 9,-10 zm2450,-40 c0,-5 -7,-10 -16,-10 c-8,0 -12,5 -9,10 c3,6 10,10 16,10 c5,0 9,-4 9,-10 zm-2560,-36 c0,-16 -59,-46 -74,-37 c-5,4 5,19 23,35 c32,29 51,30 51,2 zm3000,6 c0,-12 -28,-25 -36,-17 c-9,9 6,27 22,27 c8,0 14,-5 14,-10 zm-3662,-34 c92,-47 90,-41 94,-213 c2,-84 -1,-154 -6,-155 c-5,-2 -23,38 -41,87 c-17,50 -50,135 -73,191 c-23,55 -42,103 -42,107 c0,12 20,7 68,-17 zm3462,4 c0,-5 -4,-10 -10,-10 c-5,0 -10,5 -10,10 c0,6 5,10 10,10 c6,0 10,-4 10,-10 zm-2598,-225 c83,-337 75,-354 -26,-56 c-76,223 -81,257 -36,249 c11,-2 28,-55 62,-193 zm166,73 l124,-61 l-6,-166 c-4,-91 -9,-192 -12,-224 c-6,-54 -8,-58 -28,-52 c-11,4 -36,9 -54,12 c-22,4 -37,13 -42,27 c-12,27 -120,488 -120,510 c0,9 3,16 7,16 c4,0 63,-28 131,-62 zm-264,-96 c102,-312 107,-342 57,-342 c-10,0 -26,-7 -37,-15 c-10,-8 -24,-15 -29,-15 c-6,0 -28,33 -50,73 c-21,39 -65,117 -97,171 c-32,55 -58,105 -56,113 c2,7 37,42 78,77 c52,44 79,61 87,54 c6,-5 28,-58 47,-116 zm-507,70 l43,-37 l-41,-117 c-23,-65 -45,-118 -49,-118 c-13,0 -20,60 -20,180 c0,108 3,131 19,130 c3,0 25,-17 48,-38 zm3981,-23 c51,-18 90,-99 40,-83 c-63,19 -108,60 -93,84 c8,13 15,12 53,-1 zm-2974,-45 c9,-3 16,-14 16,-24 c0,-23 -69,-373 -75,-378 c-3,-3 -7,2 -11,11 c-6,17 14,376 22,389 c6,10 26,10 48,2 zm-794,-135 c86,-99 159,-200 225,-310 c69,-113 75,-127 85,-209 c5,-36 23,-95 39,-132 c17,-37 31,-81 31,-97 c0,-15 11,-54 25,-85 c14,-31 25,-63 25,-71 c0,-38 -33,-6 -102,98 c-104,156 -222,301 -360,444 c-78,80 -118,129 -118,143 c0,35 40,220 55,257 c8,18 18,33 24,33 c6,0 38,-32 71,-71 zm3845,-40 c30,-11 60,-29 65,-39 c11,-21 14,-70 4,-70 c-11,0 -144,101 -144,109 c0,8 11,21 16,21 c2,0 28,-9 59,-21 zm-7,-188 c20,-11 56,-33 80,-50 c37,-28 42,-36 42,-71 c0,-22 -3,-40 -7,-40 c-5,0 -46,35 -92,78 c-53,49 -82,83 -77,90 c9,16 10,15 54,-7 zm110,-331 c17,-16 20,-27 15,-53 c-7,-38 -9,-41 -22,-33 c-9,6 -51,90 -51,102 c0,12 40,1 58,-16 z" id="svg_2" fill="#4762f1" fill-opacity="1" stroke="#4762f1"/>
<path d="M5988.461540222168,6129.153869628908 c0,-10 -5,-59 -10,-109 c-34,-321 -50,-756 -30,-808 c13,-35 54,-60 85,-52 c33,8 32,29 -7,112 l-33,69 l2,403 c1,221 0,402 -3,402 c-2,0 -4,-8 -4,-17 z" id="svg_3" fill="#4762f1" fill-opacity="1" stroke="#4762f1"/>
<path d="M5999.461540222168,4773.153869628908 c-13,-6 -34,-25 -45,-40 c-20,-27 -21,-40 -20,-250 c0,-122 6,-294 13,-382 c16,-215 51,-588 55,-600 c2,-5 3,231 2,526 l-1,537 l43,82 c51,99 52,114 11,129 c-18,6 -32,11 -33,11 c-1,0 -12,-6 -25,-13 z" id="svg_4" fill="#4762f1" fill-opacity="1" stroke="#4762f1"/>
</g></g></svg>